<mxfile host="Electron" modified="2024-03-06T01:22:43.546Z" agent="Mozilla/5.0 (Windows NT 10.0; Win64; x64) AppleWebKit/537.36 (KHTML, like Gecko) draw.io/23.1.5 Chrome/120.0.6099.109 Electron/28.1.0 Safari/537.36" etag="BusN7qMjJ6ujzWpf1sKL" version="23.1.5" type="device">
  <diagram id="R2lEEEUBdFMjLlhIrx00" name="Page-1">
    <mxGraphModel dx="2284" dy="836" grid="1" gridSize="10" guides="1" tooltips="1" connect="1" arrows="1" fold="1" page="1" pageScale="1" pageWidth="850" pageHeight="1100" math="0" shadow="0" extFonts="Permanent Marker^https://fonts.googleapis.com/css?family=Permanent+Marker">
      <root>
        <mxCell id="0" />
        <mxCell id="1" parent="0" />
        <mxCell id="1kaRo6-smUg09pq-DXEL-1" value="General User" style="whiteSpace=wrap;html=1;align=center;" parent="1" vertex="1">
          <mxGeometry x="130" y="100" width="100" height="40" as="geometry" />
        </mxCell>
        <mxCell id="1kaRo6-smUg09pq-DXEL-4" style="edgeStyle=orthogonalEdgeStyle;rounded=0;orthogonalLoop=1;jettySize=auto;html=1;entryX=0;entryY=0.5;entryDx=0;entryDy=0;endArrow=ERzeroToOne;endFill=0;" parent="1" source="1kaRo6-smUg09pq-DXEL-2" target="1kaRo6-smUg09pq-DXEL-3" edge="1">
          <mxGeometry relative="1" as="geometry" />
        </mxCell>
        <mxCell id="1kaRo6-smUg09pq-DXEL-5" style="edgeStyle=orthogonalEdgeStyle;rounded=0;orthogonalLoop=1;jettySize=auto;html=1;endArrow=ERmandOne;endFill=0;" parent="1" source="1kaRo6-smUg09pq-DXEL-2" target="1kaRo6-smUg09pq-DXEL-1" edge="1">
          <mxGeometry relative="1" as="geometry" />
        </mxCell>
        <mxCell id="1kaRo6-smUg09pq-DXEL-2" value="creates" style="shape=rhombus;perimeter=rhombusPerimeter;whiteSpace=wrap;html=1;align=center;" parent="1" vertex="1">
          <mxGeometry x="280" y="90" width="120" height="60" as="geometry" />
        </mxCell>
        <mxCell id="1kaRo6-smUg09pq-DXEL-3" value="Account" style="shape=ext;margin=3;double=1;whiteSpace=wrap;html=1;align=center;" parent="1" vertex="1">
          <mxGeometry x="440" y="100" width="100" height="40" as="geometry" />
        </mxCell>
        <mxCell id="1kaRo6-smUg09pq-DXEL-8" style="edgeStyle=orthogonalEdgeStyle;rounded=0;orthogonalLoop=1;jettySize=auto;html=1;entryX=0.5;entryY=1;entryDx=0;entryDy=0;endArrow=ERmandOne;endFill=0;" parent="1" source="1kaRo6-smUg09pq-DXEL-6" target="1kaRo6-smUg09pq-DXEL-1" edge="1">
          <mxGeometry relative="1" as="geometry" />
        </mxCell>
        <mxCell id="1kaRo6-smUg09pq-DXEL-9" style="edgeStyle=orthogonalEdgeStyle;rounded=0;orthogonalLoop=1;jettySize=auto;html=1;entryX=0.5;entryY=0;entryDx=0;entryDy=0;endArrow=ERmandOne;endFill=0;" parent="1" source="1kaRo6-smUg09pq-DXEL-6" target="1kaRo6-smUg09pq-DXEL-7" edge="1">
          <mxGeometry relative="1" as="geometry" />
        </mxCell>
        <mxCell id="pNier6nQXMxlp8LnyIrU-92" style="edgeStyle=orthogonalEdgeStyle;rounded=0;orthogonalLoop=1;jettySize=auto;html=1;entryX=0.5;entryY=0;entryDx=0;entryDy=0;endArrow=ERmandOne;endFill=0;exitX=1;exitY=0;exitDx=0;exitDy=0;" parent="1" source="1kaRo6-smUg09pq-DXEL-6" target="pNier6nQXMxlp8LnyIrU-38" edge="1">
          <mxGeometry relative="1" as="geometry" />
        </mxCell>
        <mxCell id="1kaRo6-smUg09pq-DXEL-6" value="ISA" style="shape=rhombus;perimeter=rhombusPerimeter;whiteSpace=wrap;html=1;align=center;" parent="1" vertex="1">
          <mxGeometry x="120" y="210" width="120" height="60" as="geometry" />
        </mxCell>
        <mxCell id="1kaRo6-smUg09pq-DXEL-7" value="Passenger" style="whiteSpace=wrap;html=1;align=center;" parent="1" vertex="1">
          <mxGeometry x="130" y="320" width="100" height="40" as="geometry" />
        </mxCell>
        <mxCell id="pNier6nQXMxlp8LnyIrU-7" style="edgeStyle=orthogonalEdgeStyle;rounded=0;orthogonalLoop=1;jettySize=auto;html=1;entryX=0.5;entryY=0;entryDx=0;entryDy=0;endArrow=ERone;endFill=0;" parent="1" source="pNier6nQXMxlp8LnyIrU-4" target="0zgWi_-FAmYGlkSNazu4-1" edge="1">
          <mxGeometry relative="1" as="geometry">
            <mxPoint x="180" y="520" as="targetPoint" />
          </mxGeometry>
        </mxCell>
        <mxCell id="pNier6nQXMxlp8LnyIrU-8" value="" style="edgeStyle=orthogonalEdgeStyle;rounded=0;orthogonalLoop=1;jettySize=auto;html=1;endArrow=ERone;endFill=0;" parent="1" source="pNier6nQXMxlp8LnyIrU-4" target="1kaRo6-smUg09pq-DXEL-7" edge="1">
          <mxGeometry relative="1" as="geometry" />
        </mxCell>
        <mxCell id="pNier6nQXMxlp8LnyIrU-4" value="have" style="shape=rhombus;perimeter=rhombusPerimeter;whiteSpace=wrap;html=1;align=center;" parent="1" vertex="1">
          <mxGeometry x="120" y="410" width="120" height="60" as="geometry" />
        </mxCell>
        <mxCell id="pNier6nQXMxlp8LnyIrU-12" style="edgeStyle=orthogonalEdgeStyle;rounded=0;orthogonalLoop=1;jettySize=auto;html=1;endArrow=ERzeroToMany;endFill=0;" parent="1" source="pNier6nQXMxlp8LnyIrU-9" target="1kaRo6-smUg09pq-DXEL-7" edge="1">
          <mxGeometry relative="1" as="geometry" />
        </mxCell>
        <mxCell id="pNier6nQXMxlp8LnyIrU-13" style="edgeStyle=orthogonalEdgeStyle;rounded=0;orthogonalLoop=1;jettySize=auto;html=1;endArrow=ERzeroToOne;endFill=0;" parent="1" source="pNier6nQXMxlp8LnyIrU-9" target="pNier6nQXMxlp8LnyIrU-10" edge="1">
          <mxGeometry relative="1" as="geometry" />
        </mxCell>
        <mxCell id="pNier6nQXMxlp8LnyIrU-9" value="board" style="shape=rhombus;perimeter=rhombusPerimeter;whiteSpace=wrap;html=1;align=center;" parent="1" vertex="1">
          <mxGeometry x="290" y="310" width="120" height="60" as="geometry" />
        </mxCell>
        <mxCell id="pNier6nQXMxlp8LnyIrU-10" value="Flights" style="whiteSpace=wrap;html=1;align=center;" parent="1" vertex="1">
          <mxGeometry x="460" y="320" width="100" height="40" as="geometry" />
        </mxCell>
        <mxCell id="pNier6nQXMxlp8LnyIrU-17" style="edgeStyle=orthogonalEdgeStyle;rounded=0;orthogonalLoop=1;jettySize=auto;html=1;entryX=1;entryY=0.5;entryDx=0;entryDy=0;endArrow=ERoneToMany;endFill=0;" parent="1" source="pNier6nQXMxlp8LnyIrU-14" target="pNier6nQXMxlp8LnyIrU-10" edge="1">
          <mxGeometry relative="1" as="geometry" />
        </mxCell>
        <mxCell id="pNier6nQXMxlp8LnyIrU-18" style="edgeStyle=orthogonalEdgeStyle;rounded=0;orthogonalLoop=1;jettySize=auto;html=1;entryX=0;entryY=0.5;entryDx=0;entryDy=0;endArrow=ERmandOne;endFill=0;" parent="1" source="pNier6nQXMxlp8LnyIrU-14" edge="1">
          <mxGeometry relative="1" as="geometry">
            <mxPoint x="810" y="339.9999999999998" as="targetPoint" />
          </mxGeometry>
        </mxCell>
        <mxCell id="pNier6nQXMxlp8LnyIrU-14" value="has" style="shape=rhombus;perimeter=rhombusPerimeter;whiteSpace=wrap;html=1;align=center;" parent="1" vertex="1">
          <mxGeometry x="620" y="310" width="120" height="60" as="geometry" />
        </mxCell>
        <mxCell id="pNier6nQXMxlp8LnyIrU-20" value="" style="edgeStyle=orthogonalEdgeStyle;rounded=0;orthogonalLoop=1;jettySize=auto;html=1;endArrow=ERoneToMany;endFill=0;" parent="1" source="pNier6nQXMxlp8LnyIrU-19" edge="1">
          <mxGeometry relative="1" as="geometry">
            <mxPoint x="860" y="359.9999999999998" as="targetPoint" />
          </mxGeometry>
        </mxCell>
        <mxCell id="pNier6nQXMxlp8LnyIrU-22" value="" style="edgeStyle=orthogonalEdgeStyle;rounded=0;orthogonalLoop=1;jettySize=auto;html=1;endArrow=ERmandOne;endFill=0;" parent="1" source="pNier6nQXMxlp8LnyIrU-19" edge="1">
          <mxGeometry relative="1" as="geometry">
            <mxPoint x="860" y="529.9999999999998" as="targetPoint" />
          </mxGeometry>
        </mxCell>
        <mxCell id="pNier6nQXMxlp8LnyIrU-19" value="have" style="shape=rhombus;perimeter=rhombusPerimeter;whiteSpace=wrap;html=1;align=center;" parent="1" vertex="1">
          <mxGeometry x="800" y="410" width="120" height="60" as="geometry" />
        </mxCell>
        <mxCell id="pNier6nQXMxlp8LnyIrU-40" style="edgeStyle=orthogonalEdgeStyle;rounded=0;orthogonalLoop=1;jettySize=auto;html=1;endArrow=ERoneToMany;endFill=0;" parent="1" source="pNier6nQXMxlp8LnyIrU-37" edge="1">
          <mxGeometry relative="1" as="geometry">
            <mxPoint x="910" y="339.9999999999998" as="targetPoint" />
          </mxGeometry>
        </mxCell>
        <mxCell id="pNier6nQXMxlp8LnyIrU-42" style="edgeStyle=orthogonalEdgeStyle;rounded=0;orthogonalLoop=1;jettySize=auto;html=1;entryX=0;entryY=0.5;entryDx=0;entryDy=0;endArrow=ERzeroToMany;endFill=0;" parent="1" source="pNier6nQXMxlp8LnyIrU-37" target="pNier6nQXMxlp8LnyIrU-38" edge="1">
          <mxGeometry relative="1" as="geometry" />
        </mxCell>
        <mxCell id="pNier6nQXMxlp8LnyIrU-37" value="have" style="shape=rhombus;perimeter=rhombusPerimeter;whiteSpace=wrap;html=1;align=center;" parent="1" vertex="1">
          <mxGeometry x="980" y="310" width="120" height="60" as="geometry" />
        </mxCell>
        <mxCell id="pNier6nQXMxlp8LnyIrU-38" value="Staff" style="whiteSpace=wrap;html=1;align=center;" parent="1" vertex="1">
          <mxGeometry x="1175" y="320" width="100" height="40" as="geometry" />
        </mxCell>
        <mxCell id="pNier6nQXMxlp8LnyIrU-48" style="edgeStyle=orthogonalEdgeStyle;rounded=0;orthogonalLoop=1;jettySize=auto;html=1;endArrow=ERone;endFill=0;" parent="1" source="pNier6nQXMxlp8LnyIrU-41" target="pNier6nQXMxlp8LnyIrU-38" edge="1">
          <mxGeometry relative="1" as="geometry" />
        </mxCell>
        <mxCell id="pNier6nQXMxlp8LnyIrU-143" style="edgeStyle=orthogonalEdgeStyle;rounded=0;orthogonalLoop=1;jettySize=auto;html=1;endArrow=ERoneToMany;endFill=0;" parent="1" source="pNier6nQXMxlp8LnyIrU-41" edge="1">
          <mxGeometry relative="1" as="geometry">
            <mxPoint x="1225" y="530" as="targetPoint" />
          </mxGeometry>
        </mxCell>
        <mxCell id="pNier6nQXMxlp8LnyIrU-41" value="ISA" style="shape=rhombus;perimeter=rhombusPerimeter;whiteSpace=wrap;html=1;align=center;" parent="1" vertex="1">
          <mxGeometry x="1165" y="410" width="120" height="60" as="geometry" />
        </mxCell>
        <mxCell id="pNier6nQXMxlp8LnyIrU-65" style="edgeStyle=orthogonalEdgeStyle;rounded=0;orthogonalLoop=1;jettySize=auto;html=1;exitX=0.5;exitY=1;exitDx=0;exitDy=0;" parent="1" edge="1">
          <mxGeometry relative="1" as="geometry">
            <mxPoint x="1280" y="586" as="sourcePoint" />
            <mxPoint x="1280" y="586" as="targetPoint" />
          </mxGeometry>
        </mxCell>
        <mxCell id="pNier6nQXMxlp8LnyIrU-74" value="" style="endArrow=none;html=1;rounded=0;dashed=1;strokeColor=default;strokeWidth=1;dashPattern=8 8;" parent="1" edge="1">
          <mxGeometry relative="1" as="geometry">
            <mxPoint x="961" y="530" as="sourcePoint" />
            <mxPoint x="1460" y="530" as="targetPoint" />
          </mxGeometry>
        </mxCell>
        <mxCell id="pNier6nQXMxlp8LnyIrU-76" value="" style="endArrow=none;html=1;rounded=0;dashed=1;dashPattern=8 8;" parent="1" edge="1">
          <mxGeometry relative="1" as="geometry">
            <mxPoint x="1460" y="680" as="sourcePoint" />
            <mxPoint x="1460" y="530" as="targetPoint" />
          </mxGeometry>
        </mxCell>
        <mxCell id="pNier6nQXMxlp8LnyIrU-79" value="" style="endArrow=none;html=1;rounded=0;dashed=1;dashPattern=8 8;" parent="1" edge="1">
          <mxGeometry relative="1" as="geometry">
            <mxPoint x="960" y="680" as="sourcePoint" />
            <mxPoint x="1460" y="680" as="targetPoint" />
          </mxGeometry>
        </mxCell>
        <mxCell id="pNier6nQXMxlp8LnyIrU-80" value="" style="endArrow=none;html=1;rounded=0;dashed=1;dashPattern=8 8;" parent="1" edge="1">
          <mxGeometry relative="1" as="geometry">
            <mxPoint x="960" y="530" as="sourcePoint" />
            <mxPoint x="960" y="680" as="targetPoint" />
          </mxGeometry>
        </mxCell>
        <mxCell id="pNier6nQXMxlp8LnyIrU-86" value="Restaurant" style="whiteSpace=wrap;html=1;align=center;" parent="1" vertex="1">
          <mxGeometry x="810" y="740" width="100" height="40" as="geometry" />
        </mxCell>
        <mxCell id="pNier6nQXMxlp8LnyIrU-114" style="edgeStyle=orthogonalEdgeStyle;rounded=0;orthogonalLoop=1;jettySize=auto;html=1;entryX=0.5;entryY=1;entryDx=0;entryDy=0;endArrow=ERzeroToOne;endFill=0;" parent="1" source="pNier6nQXMxlp8LnyIrU-87" edge="1">
          <mxGeometry relative="1" as="geometry">
            <mxPoint x="860" y="569.9999999999998" as="targetPoint" />
          </mxGeometry>
        </mxCell>
        <mxCell id="pNier6nQXMxlp8LnyIrU-115" style="edgeStyle=orthogonalEdgeStyle;rounded=0;orthogonalLoop=1;jettySize=auto;html=1;entryX=0.5;entryY=0;entryDx=0;entryDy=0;endArrow=ERmany;endFill=0;" parent="1" source="pNier6nQXMxlp8LnyIrU-87" target="pNier6nQXMxlp8LnyIrU-86" edge="1">
          <mxGeometry relative="1" as="geometry" />
        </mxCell>
        <mxCell id="pNier6nQXMxlp8LnyIrU-87" value="have" style="shape=rhombus;perimeter=rhombusPerimeter;whiteSpace=wrap;html=1;align=center;" parent="1" vertex="1">
          <mxGeometry x="800" y="630" width="120" height="60" as="geometry" />
        </mxCell>
        <mxCell id="pNier6nQXMxlp8LnyIrU-88" value="Terminal" style="whiteSpace=wrap;html=1;align=center;" parent="1" vertex="1">
          <mxGeometry x="530" y="460" width="100" height="40" as="geometry" />
        </mxCell>
        <mxCell id="pNier6nQXMxlp8LnyIrU-90" style="edgeStyle=orthogonalEdgeStyle;rounded=0;orthogonalLoop=1;jettySize=auto;html=1;entryX=0.5;entryY=0;entryDx=0;entryDy=0;endArrow=ERmandOne;endFill=0;" parent="1" source="pNier6nQXMxlp8LnyIrU-89" target="pNier6nQXMxlp8LnyIrU-88" edge="1">
          <mxGeometry relative="1" as="geometry" />
        </mxCell>
        <mxCell id="pNier6nQXMxlp8LnyIrU-91" style="edgeStyle=orthogonalEdgeStyle;rounded=0;orthogonalLoop=1;jettySize=auto;html=1;entryX=0.25;entryY=1;entryDx=0;entryDy=0;endArrow=ERmany;endFill=0;exitX=0.5;exitY=0;exitDx=0;exitDy=0;" parent="1" source="pNier6nQXMxlp8LnyIrU-89" edge="1">
          <mxGeometry relative="1" as="geometry">
            <Array as="points">
              <mxPoint x="710" y="390" />
              <mxPoint x="835" y="390" />
            </Array>
            <mxPoint x="835" y="359.9999999999998" as="targetPoint" />
          </mxGeometry>
        </mxCell>
        <mxCell id="pNier6nQXMxlp8LnyIrU-89" value="Have" style="shape=rhombus;perimeter=rhombusPerimeter;whiteSpace=wrap;html=1;align=center;" parent="1" vertex="1">
          <mxGeometry x="650" y="410" width="120" height="60" as="geometry" />
        </mxCell>
        <mxCell id="pNier6nQXMxlp8LnyIrU-94" style="edgeStyle=orthogonalEdgeStyle;rounded=0;orthogonalLoop=1;jettySize=auto;html=1;exitX=0;exitY=0.5;exitDx=0;exitDy=0;endArrow=ERone;endFill=0;" parent="1" source="pNier6nQXMxlp8LnyIrU-93" edge="1">
          <mxGeometry relative="1" as="geometry">
            <mxPoint x="130" y="340" as="targetPoint" />
            <Array as="points">
              <mxPoint x="30" y="420" />
              <mxPoint x="30" y="340" />
              <mxPoint x="205" y="340" />
            </Array>
          </mxGeometry>
        </mxCell>
        <mxCell id="pNier6nQXMxlp8LnyIrU-95" style="edgeStyle=orthogonalEdgeStyle;rounded=0;orthogonalLoop=1;jettySize=auto;html=1;endArrow=ERoneToMany;endFill=0;" parent="1" source="pNier6nQXMxlp8LnyIrU-93" target="pNier6nQXMxlp8LnyIrU-96" edge="1">
          <mxGeometry relative="1" as="geometry">
            <mxPoint x="350" y="530.0000000000002" as="targetPoint" />
          </mxGeometry>
        </mxCell>
        <mxCell id="pNier6nQXMxlp8LnyIrU-93" value="payment" style="shape=rhombus;perimeter=rhombusPerimeter;whiteSpace=wrap;html=1;align=center;" parent="1" vertex="1">
          <mxGeometry x="-30" y="410" width="120" height="60" as="geometry" />
        </mxCell>
        <mxCell id="pNier6nQXMxlp8LnyIrU-96" value="payment&lt;br&gt;method" style="whiteSpace=wrap;html=1;align=center;" parent="1" vertex="1">
          <mxGeometry x="-20" y="570.0000000000002" width="100" height="40" as="geometry" />
        </mxCell>
        <mxCell id="pNier6nQXMxlp8LnyIrU-98" value="" style="edgeStyle=orthogonalEdgeStyle;rounded=0;orthogonalLoop=1;jettySize=auto;html=1;endArrow=ERmandOne;endFill=0;" parent="1" source="pNier6nQXMxlp8LnyIrU-97" target="pNier6nQXMxlp8LnyIrU-96" edge="1">
          <mxGeometry relative="1" as="geometry" />
        </mxCell>
        <mxCell id="pNier6nQXMxlp8LnyIrU-101" style="edgeStyle=orthogonalEdgeStyle;rounded=0;orthogonalLoop=1;jettySize=auto;html=1;entryX=0.5;entryY=0;entryDx=0;entryDy=0;endArrow=ERzeroToOne;endFill=0;" parent="1" source="pNier6nQXMxlp8LnyIrU-97" target="pNier6nQXMxlp8LnyIrU-99" edge="1">
          <mxGeometry relative="1" as="geometry" />
        </mxCell>
        <mxCell id="pNier6nQXMxlp8LnyIrU-103" style="edgeStyle=orthogonalEdgeStyle;rounded=0;orthogonalLoop=1;jettySize=auto;html=1;endArrow=ERzeroToOne;endFill=0;" parent="1" source="pNier6nQXMxlp8LnyIrU-97" target="pNier6nQXMxlp8LnyIrU-102" edge="1">
          <mxGeometry relative="1" as="geometry" />
        </mxCell>
        <mxCell id="pNier6nQXMxlp8LnyIrU-109" style="edgeStyle=orthogonalEdgeStyle;rounded=0;orthogonalLoop=1;jettySize=auto;html=1;endArrow=ERzeroToOne;endFill=0;" parent="1" source="pNier6nQXMxlp8LnyIrU-97" target="pNier6nQXMxlp8LnyIrU-110" edge="1">
          <mxGeometry relative="1" as="geometry">
            <mxPoint x="210" y="720" as="targetPoint" />
          </mxGeometry>
        </mxCell>
        <mxCell id="pNier6nQXMxlp8LnyIrU-97" value="ISA" style="shape=rhombus;perimeter=rhombusPerimeter;whiteSpace=wrap;html=1;align=center;" parent="1" vertex="1">
          <mxGeometry x="-30" y="670" width="120" height="60" as="geometry" />
        </mxCell>
        <mxCell id="pNier6nQXMxlp8LnyIrU-99" value="Cash" style="shape=ext;margin=3;double=1;whiteSpace=wrap;html=1;align=center;" parent="1" vertex="1">
          <mxGeometry x="90" y="780" width="100" height="40" as="geometry" />
        </mxCell>
        <mxCell id="pNier6nQXMxlp8LnyIrU-102" value="Credit Card" style="shape=ext;margin=3;double=1;whiteSpace=wrap;html=1;align=center;" parent="1" vertex="1">
          <mxGeometry x="-20" y="780" width="100" height="40" as="geometry" />
        </mxCell>
        <mxCell id="pNier6nQXMxlp8LnyIrU-110" value="Debit Card" style="shape=ext;margin=3;double=1;whiteSpace=wrap;html=1;align=center;" parent="1" vertex="1">
          <mxGeometry x="-130" y="780" width="100" height="40" as="geometry" />
        </mxCell>
        <mxCell id="pNier6nQXMxlp8LnyIrU-112" style="edgeStyle=orthogonalEdgeStyle;rounded=0;orthogonalLoop=1;jettySize=auto;html=1;endArrow=ERmandOne;endFill=0;" parent="1" source="pNier6nQXMxlp8LnyIrU-111" target="pNier6nQXMxlp8LnyIrU-88" edge="1">
          <mxGeometry relative="1" as="geometry" />
        </mxCell>
        <mxCell id="pNier6nQXMxlp8LnyIrU-113" style="edgeStyle=orthogonalEdgeStyle;rounded=0;orthogonalLoop=1;jettySize=auto;html=1;entryX=0;entryY=0.5;entryDx=0;entryDy=0;endArrow=ERmany;endFill=0;" parent="1" source="pNier6nQXMxlp8LnyIrU-111" edge="1">
          <mxGeometry relative="1" as="geometry">
            <mxPoint x="810" y="549.9999999999998" as="targetPoint" />
          </mxGeometry>
        </mxCell>
        <mxCell id="pNier6nQXMxlp8LnyIrU-111" value="Have" style="shape=rhombus;perimeter=rhombusPerimeter;whiteSpace=wrap;html=1;align=center;" parent="1" vertex="1">
          <mxGeometry x="650" y="520" width="120" height="60" as="geometry" />
        </mxCell>
        <mxCell id="pNier6nQXMxlp8LnyIrU-120" style="edgeStyle=orthogonalEdgeStyle;rounded=0;orthogonalLoop=1;jettySize=auto;html=1;entryX=0.75;entryY=1;entryDx=0;entryDy=0;endArrow=ERzeroToMany;endFill=0;" parent="1" target="pNier6nQXMxlp8LnyIrU-88" edge="1">
          <mxGeometry relative="1" as="geometry">
            <mxPoint x="650" y="616" as="sourcePoint" />
          </mxGeometry>
        </mxCell>
        <mxCell id="pNier6nQXMxlp8LnyIrU-122" style="edgeStyle=orthogonalEdgeStyle;rounded=0;orthogonalLoop=1;jettySize=auto;html=1;entryX=0.25;entryY=1;entryDx=0;entryDy=0;endArrow=ERoneToMany;endFill=0;" parent="1" target="pNier6nQXMxlp8LnyIrU-38" edge="1">
          <mxGeometry relative="1" as="geometry">
            <Array as="points">
              <mxPoint x="930" y="616" />
              <mxPoint x="930" y="410" />
              <mxPoint x="1200" y="410" />
            </Array>
            <mxPoint x="770" y="616" as="sourcePoint" />
          </mxGeometry>
        </mxCell>
        <mxCell id="pNier6nQXMxlp8LnyIrU-125" style="edgeStyle=orthogonalEdgeStyle;rounded=0;orthogonalLoop=1;jettySize=auto;html=1;endArrow=ERmany;endFill=0;exitX=0;exitY=0.5;exitDx=0;exitDy=0;" parent="1" source="pNier6nQXMxlp8LnyIrU-123" target="pNier6nQXMxlp8LnyIrU-126" edge="1">
          <mxGeometry relative="1" as="geometry">
            <mxPoint x="550" y="800" as="targetPoint" />
            <Array as="points">
              <mxPoint x="400" y="590" />
            </Array>
          </mxGeometry>
        </mxCell>
        <mxCell id="pNier6nQXMxlp8LnyIrU-127" style="edgeStyle=orthogonalEdgeStyle;rounded=0;orthogonalLoop=1;jettySize=auto;html=1;endArrow=ERmandOne;endFill=0;exitX=0.5;exitY=0;exitDx=0;exitDy=0;" parent="1" source="pNier6nQXMxlp8LnyIrU-123" edge="1">
          <mxGeometry relative="1" as="geometry">
            <mxPoint x="530" y="500" as="targetPoint" />
            <Array as="points">
              <mxPoint x="480" y="530" />
              <mxPoint x="530" y="530" />
            </Array>
          </mxGeometry>
        </mxCell>
        <mxCell id="pNier6nQXMxlp8LnyIrU-123" value="Have" style="shape=rhombus;perimeter=rhombusPerimeter;whiteSpace=wrap;html=1;align=center;" parent="1" vertex="1">
          <mxGeometry x="420" y="560" width="120" height="60" as="geometry" />
        </mxCell>
        <mxCell id="pNier6nQXMxlp8LnyIrU-126" value="Gates" style="whiteSpace=wrap;html=1;align=center;" parent="1" vertex="1">
          <mxGeometry x="380" y="470" width="100" height="40" as="geometry" />
        </mxCell>
        <mxCell id="pNier6nQXMxlp8LnyIrU-131" style="edgeStyle=orthogonalEdgeStyle;rounded=0;orthogonalLoop=1;jettySize=auto;html=1;endArrow=ERoneToMany;endFill=0;" parent="1" source="pNier6nQXMxlp8LnyIrU-128" target="pNier6nQXMxlp8LnyIrU-10" edge="1">
          <mxGeometry relative="1" as="geometry" />
        </mxCell>
        <mxCell id="pNier6nQXMxlp8LnyIrU-132" style="edgeStyle=orthogonalEdgeStyle;rounded=0;orthogonalLoop=1;jettySize=auto;html=1;entryX=1;entryY=0.5;entryDx=0;entryDy=0;endArrow=ERone;endFill=0;" parent="1" source="pNier6nQXMxlp8LnyIrU-128" target="pNier6nQXMxlp8LnyIrU-126" edge="1">
          <mxGeometry relative="1" as="geometry" />
        </mxCell>
        <mxCell id="pNier6nQXMxlp8LnyIrU-128" value="Have" style="shape=rhombus;perimeter=rhombusPerimeter;whiteSpace=wrap;html=1;align=center;" parent="1" vertex="1">
          <mxGeometry x="450" y="400" width="120" height="60" as="geometry" />
        </mxCell>
        <mxCell id="pNier6nQXMxlp8LnyIrU-137" style="edgeStyle=orthogonalEdgeStyle;rounded=0;orthogonalLoop=1;jettySize=auto;html=1;entryX=0.25;entryY=1;entryDx=0;entryDy=0;endArrow=ERone;endFill=0;exitX=0.5;exitY=0;exitDx=0;exitDy=0;" parent="1" source="pNier6nQXMxlp8LnyIrU-136" target="pNier6nQXMxlp8LnyIrU-10" edge="1">
          <mxGeometry relative="1" as="geometry">
            <mxPoint x="350" y="390" as="sourcePoint" />
            <Array as="points">
              <mxPoint x="330" y="390" />
              <mxPoint x="485" y="390" />
            </Array>
          </mxGeometry>
        </mxCell>
        <mxCell id="pNier6nQXMxlp8LnyIrU-138" style="edgeStyle=orthogonalEdgeStyle;rounded=0;orthogonalLoop=1;jettySize=auto;html=1;entryX=1;entryY=0.5;entryDx=0;entryDy=0;endArrow=ERone;endFill=0;" parent="1" source="pNier6nQXMxlp8LnyIrU-136" target="0zgWi_-FAmYGlkSNazu4-1" edge="1">
          <mxGeometry relative="1" as="geometry">
            <mxPoint x="230" y="540" as="targetPoint" />
          </mxGeometry>
        </mxCell>
        <mxCell id="pNier6nQXMxlp8LnyIrU-136" value="Have" style="shape=rhombus;perimeter=rhombusPerimeter;whiteSpace=wrap;html=1;align=center;" parent="1" vertex="1">
          <mxGeometry x="270" y="400" width="120" height="60" as="geometry" />
        </mxCell>
        <mxCell id="pNier6nQXMxlp8LnyIrU-141" style="edgeStyle=orthogonalEdgeStyle;rounded=0;orthogonalLoop=1;jettySize=auto;html=1;endArrow=ERoneToMany;endFill=0;" parent="1" edge="1">
          <mxGeometry relative="1" as="geometry">
            <mxPoint x="1200" y="680" as="targetPoint" />
            <Array as="points">
              <mxPoint x="1200" y="710" />
            </Array>
            <mxPoint x="839.9999999999995" y="710.0000000000002" as="sourcePoint" />
          </mxGeometry>
        </mxCell>
        <mxCell id="pNier6nQXMxlp8LnyIrU-142" style="edgeStyle=orthogonalEdgeStyle;rounded=0;orthogonalLoop=1;jettySize=auto;html=1;entryX=1;entryY=0.5;entryDx=0;entryDy=0;endArrow=ERoneToMany;endFill=0;" parent="1" target="pNier6nQXMxlp8LnyIrU-88" edge="1">
          <mxGeometry relative="1" as="geometry">
            <Array as="points">
              <mxPoint x="780" y="480" />
            </Array>
            <mxPoint x="780.0588235294117" y="680.0294117647059" as="sourcePoint" />
          </mxGeometry>
        </mxCell>
        <mxCell id="pNier6nQXMxlp8LnyIrU-147" style="edgeStyle=orthogonalEdgeStyle;rounded=0;orthogonalLoop=1;jettySize=auto;html=1;entryX=0.25;entryY=1;entryDx=0;entryDy=0;endArrow=ERzeroToOne;endFill=0;" parent="1" source="pNier6nQXMxlp8LnyIrU-144" edge="1">
          <mxGeometry relative="1" as="geometry">
            <mxPoint x="995" y="586" as="targetPoint" />
          </mxGeometry>
        </mxCell>
        <mxCell id="pNier6nQXMxlp8LnyIrU-148" style="edgeStyle=orthogonalEdgeStyle;rounded=0;orthogonalLoop=1;jettySize=auto;html=1;entryX=1;entryY=0.5;entryDx=0;entryDy=0;endArrow=ERzeroToOne;endFill=0;" parent="1" source="pNier6nQXMxlp8LnyIrU-144" target="pNier6nQXMxlp8LnyIrU-86" edge="1">
          <mxGeometry relative="1" as="geometry" />
        </mxCell>
        <mxCell id="pNier6nQXMxlp8LnyIrU-144" value="Have" style="shape=rhombus;perimeter=rhombusPerimeter;whiteSpace=wrap;html=1;align=center;" parent="1" vertex="1">
          <mxGeometry x="950" y="730" width="120" height="60" as="geometry" />
        </mxCell>
        <mxCell id="pNier6nQXMxlp8LnyIrU-150" style="edgeStyle=orthogonalEdgeStyle;rounded=0;orthogonalLoop=1;jettySize=auto;html=1;entryX=0.25;entryY=1;entryDx=0;entryDy=0;endArrow=ERzeroToMany;endFill=0;" parent="1" target="pNier6nQXMxlp8LnyIrU-88" edge="1">
          <mxGeometry relative="1" as="geometry">
            <mxPoint x="580.0588235294117" y="730.0294117647059" as="sourcePoint" />
          </mxGeometry>
        </mxCell>
        <mxCell id="pNier6nQXMxlp8LnyIrU-151" style="edgeStyle=orthogonalEdgeStyle;rounded=0;orthogonalLoop=1;jettySize=auto;html=1;endArrow=ERzeroToMany;endFill=0;" parent="1" target="pNier6nQXMxlp8LnyIrU-86" edge="1">
          <mxGeometry relative="1" as="geometry">
            <mxPoint x="640" y="759.9999999999998" as="sourcePoint" />
          </mxGeometry>
        </mxCell>
        <mxCell id="pNier6nQXMxlp8LnyIrU-153" style="edgeStyle=orthogonalEdgeStyle;rounded=0;orthogonalLoop=1;jettySize=auto;html=1;entryX=1;entryY=1;entryDx=0;entryDy=0;endArrow=ERone;endFill=0;" parent="1" source="pNier6nQXMxlp8LnyIrU-152" target="pNier6nQXMxlp8LnyIrU-88" edge="1">
          <mxGeometry relative="1" as="geometry">
            <Array as="points">
              <mxPoint x="630" y="670" />
            </Array>
          </mxGeometry>
        </mxCell>
        <mxCell id="pNier6nQXMxlp8LnyIrU-155" style="edgeStyle=orthogonalEdgeStyle;rounded=0;orthogonalLoop=1;jettySize=auto;html=1;entryX=0.5;entryY=0;entryDx=0;entryDy=0;exitX=0;exitY=0.5;exitDx=0;exitDy=0;endArrow=ERzeroToMany;endFill=0;" parent="1" source="pNier6nQXMxlp8LnyIrU-152" target="pNier6nQXMxlp8LnyIrU-154" edge="1">
          <mxGeometry relative="1" as="geometry" />
        </mxCell>
        <mxCell id="pNier6nQXMxlp8LnyIrU-152" value="Has" style="shape=rhombus;perimeter=rhombusPerimeter;whiteSpace=wrap;html=1;align=center;" parent="1" vertex="1">
          <mxGeometry x="440" y="640" width="120" height="60" as="geometry" />
        </mxCell>
        <mxCell id="pNier6nQXMxlp8LnyIrU-154" value="Stores" style="whiteSpace=wrap;html=1;align=center;" parent="1" vertex="1">
          <mxGeometry x="350" y="750" width="100" height="40" as="geometry" />
        </mxCell>
        <mxCell id="pNier6nQXMxlp8LnyIrU-157" style="edgeStyle=orthogonalEdgeStyle;rounded=0;orthogonalLoop=1;jettySize=auto;html=1;entryX=1;entryY=0.5;entryDx=0;entryDy=0;endArrow=ERoneToMany;endFill=0;" parent="1" source="pNier6nQXMxlp8LnyIrU-156" target="pNier6nQXMxlp8LnyIrU-38" edge="1">
          <mxGeometry relative="1" as="geometry">
            <Array as="points">
              <mxPoint x="1550" y="340" />
            </Array>
          </mxGeometry>
        </mxCell>
        <mxCell id="pNier6nQXMxlp8LnyIrU-158" style="edgeStyle=orthogonalEdgeStyle;rounded=0;orthogonalLoop=1;jettySize=auto;html=1;entryX=0.5;entryY=1;entryDx=0;entryDy=0;endArrow=ERone;endFill=0;" parent="1" source="pNier6nQXMxlp8LnyIrU-156" target="pNier6nQXMxlp8LnyIrU-154" edge="1">
          <mxGeometry relative="1" as="geometry">
            <mxPoint x="450" y="770" as="targetPoint" />
            <Array as="points">
              <mxPoint x="1550" y="820" />
              <mxPoint x="400" y="820" />
            </Array>
          </mxGeometry>
        </mxCell>
        <mxCell id="pNier6nQXMxlp8LnyIrU-156" value="Have" style="shape=rhombus;perimeter=rhombusPerimeter;whiteSpace=wrap;html=1;align=center;" parent="1" vertex="1">
          <mxGeometry x="1490" y="560" width="120" height="60" as="geometry" />
        </mxCell>
        <mxCell id="pNier6nQXMxlp8LnyIrU-161" style="edgeStyle=orthogonalEdgeStyle;rounded=0;orthogonalLoop=1;jettySize=auto;html=1;entryX=0;entryY=0.5;entryDx=0;entryDy=0;endArrow=ERzeroToMany;endFill=0;" parent="1" target="pNier6nQXMxlp8LnyIrU-154" edge="1">
          <mxGeometry relative="1" as="geometry">
            <mxPoint x="310.0588235294117" y="659.9705882352939" as="sourcePoint" />
            <Array as="points">
              <mxPoint x="310" y="670" />
              <mxPoint x="331" y="670" />
              <mxPoint x="331" y="706" />
              <mxPoint x="330" y="770" />
            </Array>
          </mxGeometry>
        </mxCell>
        <mxCell id="pNier6nQXMxlp8LnyIrU-163" style="edgeStyle=orthogonalEdgeStyle;rounded=0;orthogonalLoop=1;jettySize=auto;html=1;entryX=0.75;entryY=1;entryDx=0;entryDy=0;exitX=0.5;exitY=0;exitDx=0;exitDy=0;endArrow=ERzeroToMany;endFill=0;" parent="1" source="CzPzTeb5UN_BJhXmp-PE-1" target="1kaRo6-smUg09pq-DXEL-7" edge="1">
          <mxGeometry relative="1" as="geometry">
            <Array as="points">
              <mxPoint x="310" y="560" />
              <mxPoint x="260" y="560" />
              <mxPoint x="260" y="390" />
              <mxPoint x="205" y="390" />
            </Array>
            <mxPoint x="310" y="599.9999999999998" as="sourcePoint" />
          </mxGeometry>
        </mxCell>
        <mxCell id="pNier6nQXMxlp8LnyIrU-166" style="edgeStyle=orthogonalEdgeStyle;rounded=0;orthogonalLoop=1;jettySize=auto;html=1;entryX=0;entryY=0.5;entryDx=0;entryDy=0;endArrow=ERoneToMany;endFill=0;" parent="1" source="pNier6nQXMxlp8LnyIrU-164" target="pNier6nQXMxlp8LnyIrU-168" edge="1">
          <mxGeometry relative="1" as="geometry">
            <mxPoint x="460" y="270" as="targetPoint" />
          </mxGeometry>
        </mxCell>
        <mxCell id="pNier6nQXMxlp8LnyIrU-167" style="edgeStyle=orthogonalEdgeStyle;rounded=0;orthogonalLoop=1;jettySize=auto;html=1;entryX=0.75;entryY=0;entryDx=0;entryDy=0;endArrow=ERone;endFill=0;" parent="1" source="pNier6nQXMxlp8LnyIrU-164" target="1kaRo6-smUg09pq-DXEL-7" edge="1">
          <mxGeometry relative="1" as="geometry" />
        </mxCell>
        <mxCell id="pNier6nQXMxlp8LnyIrU-164" value="assigned" style="shape=rhombus;perimeter=rhombusPerimeter;whiteSpace=wrap;html=1;align=center;" parent="1" vertex="1">
          <mxGeometry x="290" y="240" width="120" height="60" as="geometry" />
        </mxCell>
        <mxCell id="pNier6nQXMxlp8LnyIrU-168" value="Luggage" style="shape=ext;margin=3;double=1;whiteSpace=wrap;html=1;align=center;" parent="1" vertex="1">
          <mxGeometry x="470" y="170" width="100" height="40" as="geometry" />
        </mxCell>
        <mxCell id="pNier6nQXMxlp8LnyIrU-171" style="edgeStyle=orthogonalEdgeStyle;rounded=0;orthogonalLoop=1;jettySize=auto;html=1;entryX=0;entryY=1;entryDx=0;entryDy=0;endArrow=ERoneToMany;endFill=0;" parent="1" source="pNier6nQXMxlp8LnyIrU-170" target="pNier6nQXMxlp8LnyIrU-38" edge="1">
          <mxGeometry relative="1" as="geometry">
            <Array as="points">
              <mxPoint x="1000" y="390" />
              <mxPoint x="1175" y="390" />
            </Array>
          </mxGeometry>
        </mxCell>
        <mxCell id="pNier6nQXMxlp8LnyIrU-172" style="edgeStyle=orthogonalEdgeStyle;rounded=0;orthogonalLoop=1;jettySize=auto;html=1;entryX=1;entryY=0;entryDx=0;entryDy=0;exitX=0.5;exitY=1;exitDx=0;exitDy=0;endArrow=ERone;endFill=0;" parent="1" source="pNier6nQXMxlp8LnyIrU-170" target="pNier6nQXMxlp8LnyIrU-86" edge="1">
          <mxGeometry relative="1" as="geometry">
            <Array as="points">
              <mxPoint x="1000" y="510" />
              <mxPoint x="950" y="510" />
              <mxPoint x="950" y="740" />
            </Array>
          </mxGeometry>
        </mxCell>
        <mxCell id="pNier6nQXMxlp8LnyIrU-170" value="Work" style="shape=rhombus;perimeter=rhombusPerimeter;whiteSpace=wrap;html=1;align=center;" parent="1" vertex="1">
          <mxGeometry x="940" y="430" width="120" height="60" as="geometry" />
        </mxCell>
        <mxCell id="pNier6nQXMxlp8LnyIrU-174" style="edgeStyle=orthogonalEdgeStyle;rounded=0;orthogonalLoop=1;jettySize=auto;html=1;entryX=0.5;entryY=0;entryDx=0;entryDy=0;endArrow=ERmany;endFill=0;" parent="1" target="pNier6nQXMxlp8LnyIrU-10" edge="1">
          <mxGeometry relative="1" as="geometry">
            <mxPoint x="620" y="260" as="sourcePoint" />
          </mxGeometry>
        </mxCell>
        <mxCell id="pNier6nQXMxlp8LnyIrU-175" style="edgeStyle=orthogonalEdgeStyle;rounded=0;orthogonalLoop=1;jettySize=auto;html=1;entryX=0.25;entryY=0;entryDx=0;entryDy=0;endArrow=ERoneToMany;endFill=0;" parent="1" edge="1">
          <mxGeometry relative="1" as="geometry">
            <mxPoint x="1135" y="546" as="targetPoint" />
            <mxPoint x="740" y="260" as="sourcePoint" />
          </mxGeometry>
        </mxCell>
        <mxCell id="pNier6nQXMxlp8LnyIrU-177" style="edgeStyle=orthogonalEdgeStyle;rounded=0;orthogonalLoop=1;jettySize=auto;html=1;entryX=0.75;entryY=1;entryDx=0;entryDy=0;endArrow=ERzeroToOne;endFill=0;" parent="1" source="pNier6nQXMxlp8LnyIrU-176" target="pNier6nQXMxlp8LnyIrU-154" edge="1">
          <mxGeometry relative="1" as="geometry" />
        </mxCell>
        <mxCell id="pNier6nQXMxlp8LnyIrU-178" style="edgeStyle=orthogonalEdgeStyle;rounded=0;orthogonalLoop=1;jettySize=auto;html=1;endArrow=ERone;endFill=0;" parent="1" source="pNier6nQXMxlp8LnyIrU-176" edge="1">
          <mxGeometry relative="1" as="geometry">
            <Array as="points">
              <mxPoint x="1160" y="880" />
              <mxPoint x="1160" y="600" />
              <mxPoint x="1020" y="600" />
            </Array>
            <mxPoint x="1020" y="586" as="targetPoint" />
          </mxGeometry>
        </mxCell>
        <mxCell id="pNier6nQXMxlp8LnyIrU-176" value="has" style="shape=rhombus;perimeter=rhombusPerimeter;whiteSpace=wrap;html=1;align=center;" parent="1" vertex="1">
          <mxGeometry x="790" y="850" width="120" height="60" as="geometry" />
        </mxCell>
        <mxCell id="CzPzTeb5UN_BJhXmp-PE-1" value="Stores Visited" style="shape=associativeEntity;whiteSpace=wrap;html=1;align=center;" parent="1" vertex="1">
          <mxGeometry x="250" y="610" width="120" height="50" as="geometry" />
        </mxCell>
        <mxCell id="CzPzTeb5UN_BJhXmp-PE-2" value="Terminal Roles" style="shape=associativeEntity;whiteSpace=wrap;html=1;align=center;" parent="1" vertex="1">
          <mxGeometry x="720" y="680" width="120" height="50" as="geometry" />
        </mxCell>
        <mxCell id="CzPzTeb5UN_BJhXmp-PE-3" value="Terminal&amp;nbsp;&lt;div&gt;Have&lt;/div&gt;" style="shape=associativeEntity;whiteSpace=wrap;html=1;align=center;" parent="1" vertex="1">
          <mxGeometry x="530" y="730" width="110" height="50" as="geometry" />
        </mxCell>
        <mxCell id="CzPzTeb5UN_BJhXmp-PE-4" value="Lounge" style="shape=ext;margin=3;double=1;whiteSpace=wrap;html=1;align=center;" parent="1" vertex="1">
          <mxGeometry x="810" y="530" width="100" height="40" as="geometry" />
        </mxCell>
        <mxCell id="CzPzTeb5UN_BJhXmp-PE-5" value="Airline" style="shape=ext;margin=3;double=1;whiteSpace=wrap;html=1;align=center;" parent="1" vertex="1">
          <mxGeometry x="810" y="320" width="100" height="40" as="geometry" />
        </mxCell>
        <mxCell id="CzPzTeb5UN_BJhXmp-PE-6" value="Terminal Staffs" style="shape=associativeEntity;whiteSpace=wrap;html=1;align=center;" parent="1" vertex="1">
          <mxGeometry x="650" y="586" width="120" height="54" as="geometry" />
        </mxCell>
        <mxCell id="0zgWi_-FAmYGlkSNazu4-1" value="Ticket" style="shape=ext;margin=3;double=1;whiteSpace=wrap;html=1;align=center;" parent="1" vertex="1">
          <mxGeometry x="130" y="520" width="100" height="40" as="geometry" />
        </mxCell>
        <mxCell id="0zgWi_-FAmYGlkSNazu4-2" value="Airline Staff" style="shape=ext;margin=3;double=1;whiteSpace=wrap;html=1;align=center;" parent="1" vertex="1">
          <mxGeometry x="1185" y="620" width="100" height="40" as="geometry" />
        </mxCell>
        <mxCell id="0zgWi_-FAmYGlkSNazu4-3" value="Manager" style="shape=ext;margin=3;double=1;whiteSpace=wrap;html=1;align=center;" parent="1" vertex="1">
          <mxGeometry x="960" y="546" width="100" height="40" as="geometry" />
        </mxCell>
        <mxCell id="0zgWi_-FAmYGlkSNazu4-4" value="Restaurant Staff" style="shape=ext;margin=3;double=1;whiteSpace=wrap;html=1;align=center;" parent="1" vertex="1">
          <mxGeometry x="1030" y="620" width="100" height="40" as="geometry" />
        </mxCell>
        <mxCell id="0zgWi_-FAmYGlkSNazu4-5" value="Security" style="shape=ext;margin=3;double=1;whiteSpace=wrap;html=1;align=center;" parent="1" vertex="1">
          <mxGeometry x="1320" y="620" width="100" height="40" as="geometry" />
        </mxCell>
        <mxCell id="0zgWi_-FAmYGlkSNazu4-6" value="baggage&lt;br&gt;handler" style="shape=ext;margin=3;double=1;whiteSpace=wrap;html=1;align=center;" parent="1" vertex="1">
          <mxGeometry x="1340" y="546" width="100" height="40" as="geometry" />
        </mxCell>
        <mxCell id="0zgWi_-FAmYGlkSNazu4-7" value="Store&lt;br&gt;Staff" style="shape=ext;margin=3;double=1;whiteSpace=wrap;html=1;align=center;" parent="1" vertex="1">
          <mxGeometry x="1230" y="546" width="100" height="40" as="geometry" />
        </mxCell>
        <mxCell id="0zgWi_-FAmYGlkSNazu4-8" value="Engineer" style="shape=ext;margin=3;double=1;whiteSpace=wrap;html=1;align=center;" parent="1" vertex="1">
          <mxGeometry x="1100" y="546" width="100" height="40" as="geometry" />
        </mxCell>
        <mxCell id="y_MFvXve8QKorvlqSQL5-1" value="Flight&lt;br&gt;Engineers" style="shape=associativeEntity;whiteSpace=wrap;html=1;align=center;" vertex="1" parent="1">
          <mxGeometry x="600" y="230" width="140" height="60" as="geometry" />
        </mxCell>
      </root>
    </mxGraphModel>
  </diagram>
</mxfile>
